# xmcd
#
# Track frame offsets: 
#        150
#        25048
#        51871
#        87162
#        91643
#        117496
#        143637
#        169225
#        186637
#        204534
#        226980
#        253997
#        276200
#        305821
#
# Disc length: 4345 seconds
#
# Revision: 13
# Processed by: cddbd v1.5.2PL0 Copyright (c) Steve Scherf et al.
# Submitted via: ExactAudioCopy v0.99pb4
#
DISCID=c810f70e
DTITLE=Roy Hargrove presents The RH Factor - Hard Groove
DYEAR=2003
DGENRE=Jazz
TTITLE0=Hardgroove (Clavinet - Bobby Sparks)
TTITLE1=Common Free Style ( Backing Vocals - Maurice Brown , Roy Hargr
TTITLE1=ove)
TTITLE2=I'll Stay (Backing Vocals - Jason Thomas , Roy Hargrove)
TTITLE3=Interlude
TTITLE4=Pastor "T" (Tenor Saxphone - Keith Anderson)
TTITLE5=Poetry ( Vocals - Erykah Badu)
TTITLE6=The Joint (Percussion - Roy Hargrove)
TTITLE7=Forget Regret (Vocals - Stephanie McKay)
TTITLE8=Out of Town (Tenor Saxophone - Keith Loftis)
TTITLE9=Liquid Streets (Guitar - Cornell Dupree)
TTITLE10=Kwah - Home (Soprano Saxophone - Jacques Schwarz-Bart)
TTITLE11=How I Know (Vocals - Shelby Johnson)
TTITLE12=Juicy (Vocals - Renee Neufville)
TTITLE13=The Stroke (Percussion - Kwaku Obeng)
EXTD=
EXTT0=
EXTT1=
EXTT2=
EXTT3=
EXTT4=
EXTT5=
EXTT6=
EXTT7=
EXTT8=
EXTT9=
EXTT10=
EXTT11=
EXTT12=
EXTT13=
PLAYORDER=
